<svg width="868.7461425781249px" height="226.3799865722656px" xmlns="http://www.w3.org/2000/svg" viewBox="-184.37307128906247 -38.189993286132804 868.7461425781249 226.3799865722656" style="background: rgba(14, 14, 14, 0);" preserveAspectRatio="xMidYMid"><defs><filter id="editing-extrude-glow"><feFlood flood-color="rgba(0%,0%,0%,0)" result="flood-1"></feFlood><feMorphology operator="erode" radius="1" in="SourceAlpha" result="erode"></feMorphology><feComposite operator="in" in="flood-1" in2="erode" result="comp1"></feComposite><feConvolveMatrix order="1,1" divisor="1" in="comp1" result="convolve" kernelMatrix="1"></feConvolveMatrix><feOffset dx="-1" dy="0" in="convolve" result="extrude"></feOffset><feComposite operator="in" in="flood-1" in2="extrude" result="comp-extrude"></feComposite><feFlood flood-color="rgba(28.952380952380953%,28.3951841868823%,28.3951841868823%,0)" result="flood-2"></feFlood><feComposite operator="in" in="flood-2" in2="SourceAlpha" result="comp2"></feComposite><feMorphology operator="dilate" radius="1" in="comp2" result="dilate"></feMorphology><feOffset dx="-1.5" dy="0" in="dilate" result="offset"></feOffset><feGaussianBlur in="offset" stdDeviation="5.8" result="blur"></feGaussianBlur><feComponentTransfer in="blur" result="shadow"><feFuncA type="linear" slope="0.8" intercept="-0.2"></feFuncA></feComponentTransfer><feMerge><feMergeNode in="shadow"></feMergeNode><feMergeNode in="comp-extrude"></feMergeNode><feMergeNode in="SourceGraphic"></feMergeNode></feMerge></filter></defs><g filter="url(#editing-extrude-glow)"><g transform="translate(-63.31709337234497, 113.44375228881836)"><path d="M6.05 1.37L3.91 0.20L3.91-21.88L3.91-21.88Q3.81-33.98 4.69-68.07L4.69-68.07L4.69-72.07L4.69-72.07Q4.69-73.14 5.08-73.34L5.08-73.34L38.67-73.34L38.67-73.34Q39.16-73.34 40.65-69.63L40.65-69.63L40.65-69.63Q42.14-65.92 44.26-60.08L44.26-60.08L44.26-60.08Q46.39-54.25 47.27-52.05L47.27-52.05L54.10-34.18L54.10-53.13L54.10-53.13Q54.10-55.57 54.22-62.08L54.22-62.08L54.22-62.08Q54.35-68.60 54.30-72.27L54.30-72.27L54.30-72.27Q54.30-73.63 62.11-73.63L62.11-73.63L62.11-73.63Q64.55-73.63 68.80-73.54L68.80-73.54L68.80-73.54Q73.05-73.44 74.02-73.44L74.02-73.44L77.73-73.44L77.73-73.44Q78.52-73.44 78.52-73.14L78.52-73.14L78.52-73.14Q78.81-59.57 78.81-34.28L78.81-34.28L78.81-0.39L78.81-0.39Q78.47 0.88 75.68 0.88L75.68 0.88L74.41 0.88L74.41 0.88Q71.88 0.88 66.94 0.98L66.94 0.98L66.94 0.98Q62.01 1.07 59.47 1.07L59.47 1.07L45.12 1.07L45.12 1.07Q44.43 0.83 42.29-5.08L42.29-5.08L42.29-5.08Q39.99-11.47 35.45-23.58L35.45-23.58L35.45-23.58Q30.91-35.69 30.37-37.11L30.37-37.11L30.37-37.11Q30.37-34.23 30.32-28.52L30.32-28.52L30.32-28.52Q30.27-22.80 30.27-19.92L30.27-19.92L30.27-19.92Q30.27-17.77 30.37-13.48L30.37-13.48L30.37-13.48Q30.47-9.18 30.47-7.03L30.47-7.03L30.47-0.88L30.47-0.88Q30.47 1.37 28.52 1.37L28.52 1.37L6.05 1.37ZM78.52-73.05L78.52-73.24L78.52-73.05ZM119.82 1.27L88.28 1.27L88.28 1.27Q88.48-12.94 88.96-19.53L88.96-19.53L88.96-19.53Q88.96-40.04 89.55-61.13L89.55-61.13L89.55-61.13Q89.36-65.23 89.36-67.19L89.36-67.19L89.36-68.65L89.36-68.65Q89.16-70.80 89.16-72.17L89.16-72.17L89.16-72.17Q89.16-73.10 90.04-73.83L90.04-73.83L90.04-73.83Q98.05-73.24 114.45-73.24L114.45-73.24L114.45-73.24Q118.36-73.24 119.82-73.44L119.82-73.44L119.82 1.27ZM131.45 1.37L129.30 0.20L129.30-21.88L129.30-21.88Q129.20-33.98 130.08-68.07L130.08-68.07L130.08-72.07L130.08-72.07Q130.08-73.14 130.47-73.34L130.47-73.34L164.06-73.34L164.06-73.34Q164.55-73.34 166.04-69.63L166.04-69.63L166.04-69.63Q167.53-65.92 169.65-60.08L169.65-60.08L169.65-60.08Q171.78-54.25 172.66-52.05L172.66-52.05L179.49-34.18L179.49-53.13L179.49-53.13Q179.49-55.57 179.61-62.08L179.61-62.08L179.61-62.08Q179.74-68.60 179.69-72.27L179.69-72.27L179.69-72.27Q179.69-73.63 187.50-73.63L187.50-73.63L187.50-73.63Q189.94-73.63 194.19-73.54L194.19-73.54L194.19-73.54Q198.44-73.44 199.41-73.44L199.41-73.44L203.13-73.44L203.13-73.44Q203.91-73.44 203.91-73.14L203.91-73.14L203.91-73.14Q204.20-59.57 204.20-34.28L204.20-34.28L204.20-0.39L204.20-0.39Q203.86 0.88 201.07 0.88L201.07 0.88L199.80 0.88L199.80 0.88Q197.27 0.88 192.33 0.98L192.33 0.98L192.33 0.98Q187.40 1.07 184.86 1.07L184.86 1.07L170.51 1.07L170.51 1.07Q169.82 0.83 167.68-5.08L167.68-5.08L167.68-5.08Q165.38-11.47 160.84-23.58L160.84-23.58L160.84-23.58Q156.30-35.69 155.76-37.11L155.76-37.11L155.76-37.11Q155.76-34.23 155.71-28.52L155.71-28.52L155.71-28.52Q155.66-22.80 155.66-19.92L155.66-19.92L155.66-19.92Q155.66-17.77 155.76-13.48L155.76-13.48L155.76-13.48Q155.86-9.18 155.86-7.03L155.86-7.03L155.86-0.88L155.86-0.88Q155.86 1.37 153.91 1.37L153.91 1.37L131.45 1.37ZM203.91-73.05L203.91-73.24L203.91-73.05ZM240.14 2.73L240.14 2.73L240.14 2.73Q234.72 2.73 230.25 2.03L230.25 2.03L230.25 2.03Q225.78 1.32 221.66-0.46L221.66-0.46L221.66-0.46Q217.53-2.25 214.70-5.08L214.70-5.08L214.70-5.08Q211.87-7.91 210.18-12.45L210.18-12.45L210.18-12.45Q208.50-16.99 208.50-22.95L208.50-22.95L208.50-22.95Q208.50-25.59 210.06-25.59L210.06-25.59L232.32-25.59L232.32-25.59Q233.84-25.59 234.57-24.85L234.57-24.85L234.57-24.85Q235.30-24.12 235.45-23.05L235.45-23.05L235.45-23.05Q235.60-21.97 235.72-20.90L235.72-20.90L235.72-20.90Q235.84-19.82 236.45-19.09L236.45-19.09L236.45-19.09Q237.06-18.36 238.38-18.36L238.38-18.36L238.38-18.36Q239.60-18.36 240.36-19.02L240.36-19.02L240.36-19.02Q241.11-19.68 241.43-21.00L241.43-21.00L241.43-21.00Q241.75-22.31 241.82-23.29L241.82-23.29L241.82-23.29Q241.89-24.27 241.89-25.78L241.89-25.78L241.89-26.17L241.89-26.17Q241.85-29.69 241.63-39.75L241.63-39.75L241.63-39.75Q241.41-49.80 241.41-55.47L241.41-55.47L241.41-72.07L241.41-72.07Q241.41-73.49 243.46-73.73L243.46-73.73L243.46-73.73Q245.02-73.73 248.14-73.68L248.14-73.68L248.14-73.68Q251.27-73.63 252.83-73.63L252.83-73.63L252.83-73.63Q255.18-73.63 259.77-73.68L259.77-73.68L259.77-73.68Q264.36-73.73 266.70-73.73L266.70-73.73L271.29-73.73L271.29-73.73Q272.41-73.73 272.85-72.36L272.85-72.36L272.85-72.36Q272.75-71.48 272.78-69.97L272.78-69.97L272.78-69.97Q272.80-68.46 272.75-67.58L272.75-67.58L272.75-65.14L272.75-65.14Q272.27-50.15 272.27-38.38L272.27-38.38L272.27-23.05L272.27-23.05Q272.27-18.75 271.09-15.09L271.09-15.09L271.09-15.09Q269.92-11.43 267.97-8.84L267.97-8.84L267.97-8.84Q266.02-6.25 263.31-4.17L263.31-4.17L263.31-4.17Q260.60-2.10 257.71-0.83L257.71-0.83L257.71-0.83Q254.83 0.44 251.64 1.27L251.64 1.27L251.64 1.27Q248.44 2.10 245.63 2.42L245.63 2.42L245.63 2.42Q242.82 2.73 240.14 2.73ZM274.80 0L274.80 0L274.80 0Q277.83-11.18 281.49-22.71L281.49-22.71L281.49-22.71Q285.16-34.23 290.60-50.27L290.60-50.27L290.60-50.27Q296.04-66.31 298.05-72.46L298.05-72.46L298.05-72.46Q298.63-73.44 298.83-73.63L298.83-73.63L307.03-73.63L307.03-73.63Q309.91-73.63 315.53-73.73L315.53-73.73L315.53-73.73Q321.14-73.83 324.02-73.83L324.02-73.83L332.23-73.83L332.23-73.83Q332.96-73.83 333.45-73.80L333.45-73.80L333.45-73.80Q333.94-73.78 334.62-73.68L334.62-73.68L334.62-73.68Q335.30-73.58 335.72-73.39L335.72-73.39L335.72-73.39Q336.13-73.19 336.43-72.80L336.43-72.80L336.43-72.80Q336.72-72.41 336.72-71.88L336.72-71.88L359.23-0.54L359.23-0.54Q359.23 0.44 358.52 0.81L358.52 0.81L358.52 0.81Q357.81 1.17 355.86 1.17L355.86 1.17L351.37 1.17L351.37 1.17Q349.41 1.17 345.56 1.22L345.56 1.22L345.56 1.22Q341.70 1.27 339.75 1.27L339.75 1.27L339.75 1.27Q339.16 1.27 337.38 1.34L337.38 1.34L337.38 1.34Q335.60 1.42 334.38 1.39L334.38 1.39L334.38 1.39Q333.15 1.37 331.67 1.25L331.67 1.25L331.67 1.25Q330.18 1.12 329.27 0.71L329.27 0.71L329.27 0.71Q328.37 0.29 328.13-0.39L328.13-0.39L328.13-3.61L328.13-3.61Q327.64-6.05 326.42-8.11L326.42-8.11L326.42-8.11Q325.20-10.16 323.83-10.16L323.83-10.16L307.03-10.16L304.49 0.20L304.49 0.20Q303.96 1.37 299.02 1.37L299.02 1.37L295.12 1.37L295.12 1.37Q293.02 1.37 288.87 1.51L288.87 1.51L288.87 1.51Q284.72 1.66 282.62 1.66L282.62 1.66L281.25 1.66L281.25 1.66Q280.47 1.66 278.78 1.71L278.78 1.71L278.78 1.71Q277.10 1.76 276.17 1.76L276.17 1.76L276.17 1.76Q275.78 1.37 274.80 0ZM312.60-46.58L308.69-29.64L310.06-27.34L313.28-27.34L313.28-27.34Q317.19-27.34 320.43-27.81L320.43-27.81L320.43-27.81Q323.68-28.27 323.68-29.30L323.68-29.30L317.38-57.42L317.38-57.42Q316.50-57.42 315.01-54.10L315.01-54.10L315.01-54.10Q313.53-50.78 312.60-46.58L312.60-46.58ZM362.11-65.23L362.11-65.23L362.11-65.23Q362.11-73.19 363.77-74.12L363.77-74.12L363.77-74.12Q364.26-74.02 365.14-74.02L365.14-74.02L366.70-74.02L366.70-74.02Q368.21-74.02 371.68-74.12L371.68-74.12L371.68-74.12Q375.15-74.22 376.95-74.22L376.95-74.22L376.95-74.22Q383.89-74.22 388.16-73.66L388.16-73.66L388.16-73.66Q392.43-73.10 392.97-71.58L392.97-71.58L392.38-21.19L393.46-21.19L393.46-21.19Q397.36-21.39 398.93-21.36L398.93-21.36L398.93-21.36Q400.49-21.34 404.66-21.17L404.66-21.17L404.66-21.17Q408.84-21.00 412.70-21.00L412.70-21.00L412.70-21.00Q415.87-21.00 417.41-20.63L417.41-20.63L417.41-20.63Q418.95-20.26 418.95-19.14L418.95-19.14L418.95-0.39L418.95-0.39Q418.31 1.37 397.17 1.37L397.17 1.37L363.38 1.37L363.38 1.37Q362.21-0.34 362.21-4.10L362.21-4.10L362.21-17.97L362.21-17.97Q362.21-24.07 362.30-36.04L362.30-36.04L362.30-36.04Q362.40-48.00 362.40-54.10L362.40-54.10L362.40-54.10Q362.40-55.22 362.26-59.08L362.26-59.08L362.26-59.08Q362.11-62.94 362.11-65.23ZM460.84-12.11L445.80-12.11L445.80-12.11Q445.46-10.99 445.14-9.16L445.14-9.16L445.14-9.16Q444.82-7.32 444.56-6.27L444.56-6.27L444.56-6.27Q444.29-5.22 443.65-4.08L443.65-4.08L443.65-4.08Q443.02-2.93 441.72-2.39L441.72-2.39L441.72-2.39Q440.43-1.86 438.38-1.86L438.38-1.86L417.29-1.86L417.29-3.52L417.29-3.52Q419.87-11.28 424.83-27.34L424.83-27.34L424.83-27.34Q429.79-43.41 432.52-51.66L432.52-51.66L432.52-51.56L432.52-51.56Q434.18-56.30 437.40-66.41L437.40-66.41L437.40-66.41Q437.45-66.50 437.55-66.65L437.55-66.65L437.55-66.65Q437.99-67.38 438.38-67.77L438.38-67.77L464.75-67.58L464.75-67.58Q471.48-67.58 472.17-66.41L472.17-66.41L472.17-65.14L472.17-65.14Q472.27-64.70 473.24-62.89L473.24-62.89L473.24-62.89Q477.98-48.39 480.18-41.80L480.18-41.80L480.18-41.21L480.18-41.21Q480.37-39.79 481.05-37.99L481.05-37.99L481.05-37.99Q481.74-36.18 482.69-34.11L482.69-34.11L482.69-34.11Q483.64-32.03 484.03-30.86L484.03-30.86L485.99-23.83L485.99-23.83Q487.70-18.16 491.02-8.69L491.02-8.69L491.02-8.79L491.02-7.81L491.02-7.81Q491.16-7.13 491.75-5.96L491.75-5.96L491.75-5.96Q492.33-4.79 492.48-4.30L492.48-4.30L492.48-4.30Q492.48-2.93 491.92-2.54L491.92-2.54L491.92-2.54Q491.36-2.15 489.75-2.15L489.75-2.15L467.09-2.15L467.09-2.15Q466.26-2.25 466.02-2.29L466.02-2.29L466.02-2.29Q465.77-2.34 465.26-2.49L465.26-2.49L465.26-2.49Q464.75-2.64 464.53-2.88L464.53-2.88L464.53-2.88Q464.31-3.13 464.26-3.52L464.26-3.52L462.40-10.94L462.40-10.94Q462.21-11.87 462.01-11.99L462.01-11.99L462.01-11.99Q461.82-12.11 460.84-12.11L460.84-12.11ZM448.14-29.30L448.14-29.49L448.14-29.30ZM458.89-35.35L458.89-35.35L458.89-35.35Q458.59-36.72 458.03-39.77L458.03-39.77L458.03-39.77Q457.47-42.82 456.93-45.09L456.93-45.09L456.93-45.09Q456.40-47.36 455.76-49.32L455.76-49.32L455.76-51.66L455.76-51.66Q455.37-52.69 454.39-53.13L454.39-53.13L454.39-53.03L454.39-53.03Q453.22-52.78 452.05-46.48L452.05-46.48L452.05-44.14L452.05-44.14Q451.95-43.80 451.61-43.51L451.61-43.51L451.61-43.51Q451.27-43.21 451.27-43.16L451.27-43.16L451.27-43.16Q449.66-36.04 448.63-31.64L448.63-31.64L448.63-31.64Q448.63-31.15 448.39-29.93L448.39-29.93L448.39-29.93Q448.14-28.71 448.14-28.52L448.14-28.52L460.25-28.52L460.25-28.52Q460.25-29.79 459.38-33.11L459.38-33.11L459.38-34.18L459.38-34.18Q459.33-34.33 459.11-34.74L459.11-34.74L459.11-34.74Q458.89-35.16 458.89-35.35ZM546.97-36.52L546.97-36.52L546.97-36.52Q549.46-36.52 551.56-34.96L551.56-34.96L551.56-34.96Q553.66-33.40 554.93-31.03L554.93-31.03L554.93-31.03Q556.20-28.66 556.91-26.10L556.91-26.10L556.91-26.10Q557.62-23.54 557.62-21.29L557.62-21.29L557.62-21.29Q557.42-15.33 554.22-10.91L554.22-10.91L554.22-10.91Q551.03-6.49 545.70-4.59L545.70-4.59L541.60-2.15L495.51-2.15L495.51-67.77L532.62-67.77L532.62-67.77Q543.65-67.77 550.10-63.09L550.10-63.09L550.10-63.09Q552.93-61.23 554.39-57.71L554.39-57.71L554.39-57.71Q555.86-54.20 555.86-50.29L555.86-50.29L555.86-50.29Q555.86-45.31 553.69-42.29L553.69-42.29L553.69-42.29Q551.51-39.26 546.97-36.52ZM521.68-30.27L521.68-30.27L519.73-18.12L519.73-18.12Q519.73-17.92 520.41-17.65L520.41-17.65L520.41-17.65Q521.09-17.38 521.58-17.29L521.58-17.29L525.39-17.29L525.39-17.29Q528.56-17.53 530.49-18.87L530.49-18.87L530.49-18.87Q532.42-20.21 532.42-23.34L532.42-23.34L532.42-23.34Q532.42-24.46 532.18-25.39L532.18-25.39L532.18-25.39Q531.93-26.32 531.57-27.00L531.57-27.00L531.57-27.00Q531.20-27.69 530.57-28.22L530.57-28.22L530.57-28.22Q529.93-28.76 529.37-29.10L529.37-29.10L529.37-29.10Q528.81-29.44 527.88-29.66L527.88-29.66L527.88-29.66Q526.95-29.88 526.34-30.00L526.34-30.00L526.34-30.00Q525.73-30.13 524.73-30.20L524.73-30.20L524.73-30.20Q523.73-30.27 523.19-30.27L523.19-30.27L523.19-30.27Q522.66-30.27 521.68-30.27ZM520.70-51.76L520.70-51.76L520.70-51.76Q521.09-49.56 521.09-46.68L521.09-46.68L521.09-45.70L521.09-45.70Q521.09-45.56 521.04-45.21L521.04-45.21L521.04-45.21Q521.00-44.87 521.00-44.73L521.00-44.73L521.00-44.73Q521.00-44.53 521.04-43.87L521.04-43.87L521.04-43.87Q521.09-43.21 521.09-42.77L521.09-42.77L521.09-41.21L521.09-41.21Q521.09-40.67 521.48-40.53L521.48-40.53L521.48-40.53Q522.75-40.53 523.49-40.58L523.49-40.58L523.49-40.58Q524.22-40.63 525.61-40.77L525.61-40.77L525.61-40.77Q527.00-40.92 527.88-41.36L527.88-41.36L527.88-41.36Q528.76-41.80 529.69-42.50L529.69-42.50L529.69-42.50Q530.62-43.21 531.08-44.43L531.08-44.43L531.08-44.43Q531.54-45.65 531.54-47.27L531.54-47.27L531.54-47.27Q531.54-49.46 530.08-50.83L530.08-50.83L530.08-50.83Q528.61-52.20 526.76-52.61L526.76-52.61L526.76-52.61Q524.90-53.03 522.56-53.03L522.56-53.03L522.56-53.03Q522.36-52.93 521.48-52.93L521.48-52.93L521.48-53.03L521.48-53.03Q520.70-52.73 520.70-51.76ZM602.15-48.24L602.15-48.24L602.15-48.24Q600.83-48.24 600-48.63L600-48.63L600-48.63Q599.17-49.02 598.68-49.61L598.68-49.61L598.68-49.61Q598.19-50.20 597.58-50.78L597.58-50.78L597.58-50.78Q596.97-51.37 595.65-51.76L595.65-51.76L595.65-51.76Q594.34-52.15 592.29-52.15L592.29-52.15L592.29-52.15Q591.65-52.15 590.75-52.03L590.75-52.03L590.75-52.03Q589.84-51.90 588.77-51.37L588.77-51.37L588.77-51.37Q587.70-50.83 587.70-50L587.70-50L587.70-50Q587.70-49.07 588.60-48.41L588.60-48.41L588.60-48.41Q589.50-47.75 590.65-47.49L590.65-47.49L590.65-47.49Q591.80-47.22 593.24-46.85L593.24-46.85L593.24-46.85Q594.68-46.48 595.26-46.19L595.26-46.19L602.44-44.43L602.44-44.43Q605.62-43.55 608.15-42.58L608.15-42.58L608.15-42.58Q610.69-41.60 613.55-39.92L613.55-39.92L613.55-39.92Q616.41-38.23 618.31-36.18L618.31-36.18L618.31-36.18Q620.21-34.13 621.48-31.03L621.48-31.03L621.48-31.03Q622.75-27.93 622.75-24.22L622.75-24.22L622.75-24.22Q622.75-19.73 621.58-16.21L621.58-16.21L621.58-16.31L621.58-16.31Q620.56-13.18 618.70-10.72L618.70-10.72L618.70-10.72Q616.85-8.25 614.31-6.62L614.31-6.62L614.31-6.62Q611.77-4.98 609.18-3.88L609.18-3.88L609.18-3.88Q606.59-2.78 603.20-2.12L603.20-2.12L603.20-2.12Q599.80-1.46 597.14-1.15L597.14-1.15L597.14-1.15Q594.48-0.83 591.02-0.59L591.02-0.59L591.02-0.59Q575.63-1.37 570.41-5.47L570.41-5.47L570.41-6.05L570.41-6.05Q565.97-9.38 563.84-13.28L563.84-13.28L563.84-13.28Q561.72-17.19 561.33-22.07L561.33-22.07L561.33-22.07Q561.33-23.24 562.40-23.24L562.40-23.24L562.40-23.24Q562.70-23.24 563.28-23.19L563.28-23.19L563.28-23.19Q563.87-23.14 564.16-23.14L564.16-23.14L569.14-23.14L569.14-23.14Q569.82-23.24 571.09-23.24L571.09-23.24L572.36-23.24L572.36-23.24Q572.75-23.24 573.05-23.14L573.05-23.14L573.05-23.14Q575.88-23.24 582.71-23.24L582.71-23.24L584.96-23.24L584.96-23.24Q585.94-23.24 586.47-22.66L586.47-22.66L586.47-22.66Q587.01-22.07 587.33-21.22L587.33-21.22L587.33-21.22Q587.65-20.36 588.06-19.51L588.06-19.51L588.06-19.51Q588.48-18.65 589.55-18.07L589.55-18.07L589.55-18.07Q590.63-17.48 592.38-17.48L592.38-17.48L592.38-17.48Q594.29-17.48 595.83-18.48L595.83-18.48L595.83-18.48Q597.36-19.48 597.36-21.39L597.36-21.39L597.36-21.39Q597.36-22.27 596.53-23.05L596.53-23.05L596.53-23.05Q595.70-23.83 594.04-24.46L594.04-24.46L594.04-24.46Q592.38-25.10 591.09-25.49L591.09-25.49L591.09-25.49Q589.79-25.88 587.60-26.42L587.60-26.42L587.60-26.42Q585.40-26.95 584.77-27.15L584.77-27.15L581.84-27.15L581.84-27.15Q571.24-30.27 566.58-35.08L566.58-35.08L566.58-35.08Q561.91-39.89 561.91-47.27L561.91-47.27L561.91-47.27Q561.91-52.15 563.75-56.05L563.75-56.05L563.75-56.05Q565.58-59.96 568.58-62.45L568.58-62.45L568.58-62.45Q571.58-64.94 575.63-66.63L575.63-66.63L575.63-66.63Q579.69-68.31 583.89-69.02L583.89-69.02L583.89-69.02Q588.09-69.73 592.58-69.73L592.58-69.73L592.58-69.73Q600.54-69.73 607.35-67.07L607.35-67.07L607.35-67.07Q614.16-64.40 617.68-60.16L617.68-60.16L617.68-60.16Q618.95-58.89 619.73-56.93L619.73-56.93L619.73-56.93Q620.51-54.98 620.73-53.83L620.73-53.83L620.73-53.83Q620.95-52.69 621.29-50L621.29-50L619.92-48.05L611.62-48.05L611.62-48.05Q610.25-48.05 607.08-48.14L607.08-48.14L607.08-48.14Q603.91-48.24 602.15-48.24Z" fill="#66fcf1"></path></g></g><style>text {
  font-size: 64px;
  font-family: Arial Black;
  dominant-baseline: central;
  text-anchor: middle;
}</style></svg>