<?xml version="1.0" standalone="no"?>
<!DOCTYPE svg PUBLIC "-//W3C//DTD SVG 20010904//EN"
 "http://www.w3.org/TR/2001/REC-SVG-20010904/DTD/svg10.dtd">
<svg version="1.0" xmlns="http://www.w3.org/2000/svg"
 width="1280.000000pt" height="1122.000000pt" viewBox="0 0 1280.000000 1122.000000"
 preserveAspectRatio="xMidYMid meet">
<g transform="translate(0.000000,1122.000000) scale(0.100000,-0.100000)"
fill="#000000" stroke="none">
<path d="M9571 10938 c-106 -75 -216 -138 -241 -138 -14 0 -51 -15 -81 -33
-47 -28 -1744 -1262 -2036 -1479 -59 -44 -103 -87 -126 -121 -19 -28 -47 -63
-61 -76 -14 -14 -26 -29 -26 -35 0 -6 18 -38 41 -71 151 -222 186 -430 110
-654 -106 -314 -365 -532 -691 -582 -261 -40 -562 123 -697 378 -66 125 -84
191 -90 330 -9 201 24 315 143 496 41 61 71 114 66 117 -71 62 -2342 1737
-2504 1848 l-48 33 0 -79 c0 -105 9 -192 160 -1608 111 -1031 157 -1424 186
-1563 5 -23 6 -23 87 -15 207 22 341 2 494 -72 193 -95 330 -271 378 -487 26
-116 17 -285 -19 -392 -127 -375 -520 -615 -886 -541 -261 53 -434 203 -545
470 -25 61 -45 96 -55 96 -8 0 -40 -9 -70 -21 -30 -12 -91 -27 -136 -34 -88
-15 -12 17 -1534 -650 -448 -196 -833 -366 -855 -378 -22 -11 -65 -39 -95 -62
-30 -24 -86 -59 -125 -78 -38 -20 -79 -42 -89 -50 -19 -14 -17 -15 25 -34 435
-195 2919 -1293 2925 -1293 2 0 30 53 63 118 66 128 126 208 211 278 160 132
380 199 574 175 102 -12 233 -55 314 -102 77 -46 218 -189 265 -269 82 -142
112 -305 83 -450 -58 -286 -231 -506 -492 -626 -111 -52 -219 -74 -356 -74
-103 0 -117 -2 -121 -17 -33 -120 -55 -306 -267 -2248 -22 -198 -44 -463 -50
-588 -6 -126 -13 -249 -17 -275 l-6 -46 29 19 c80 52 2590 1888 2593 1896 1 6
-14 36 -34 67 -94 141 -138 238 -161 359 -55 287 59 586 289 758 210 159 469
201 717 119 292 -97 501 -373 503 -664 1 -111 -15 -179 -74 -327 -27 -66 -49
-132 -49 -146 0 -14 -17 -57 -37 -96 -36 -71 -36 -72 -17 -90 19 -19 2075
-1530 2372 -1745 90 -64 166 -116 168 -114 3 4 -22 252 -102 993 -24 231 -58
545 -74 698 -17 152 -44 404 -60 560 -17 155 -44 408 -60 562 -17 154 -34 309
-38 345 l-7 65 -150 6 c-260 12 -390 50 -542 162 -113 84 -226 248 -267 387
-105 357 65 745 399 910 110 54 181 71 315 77 95 4 131 1 203 -16 151 -36 272
-106 383 -223 75 -79 109 -128 168 -247 37 -72 51 -92 64 -88 9 3 649 283
1422 622 773 340 1420 624 1439 632 18 8 32 16 30 18 -23 22 -2940 1325 -2967
1325 -5 0 -22 -20 -40 -45 -17 -25 -36 -45 -41 -45 -5 0 -42 -42 -82 -92 -138
-176 -263 -271 -431 -329 -211 -72 -387 -58 -575 46 -82 46 -223 184 -272 268
-223 380 -82 873 309 1076 142 74 308 103 488 84 51 -6 85 -5 89 0 3 5 81 692
174 1526 92 834 170 1540 173 1569 4 28 3 52 -1 52 -5 -1 -28 -15 -52 -32z
m-2926 -4563 c173 -30 340 -117 444 -231 61 -67 133 -208 162 -319 28 -105 31
-307 6 -408 -80 -325 -322 -573 -642 -658 -113 -30 -316 -30 -430 0 -111 29
-252 101 -319 162 -104 95 -192 256 -227 414 -21 95 -16 294 10 390 118 444
552 727 996 650z"/>
</g>
</svg>
