<svg xmlns="http://www.w3.org/2000/svg" width="648.9230768102157" height="113" style="background: rgba(14, 14, 14, 0);" preserveAspectRatio="xMidYMid"><rect id="backgroundrect" width="100%" height="100%" x="0" y="0" fill="none" stroke="none" class="" style=""/><defs><filter id="editing-extrude-glow"><feFlood flood-color="rgba(0%,0%,0%,0)" result="flood-1"/><feMorphology operator="erode" radius="1" in="SourceAlpha" result="erode"/><feComposite operator="in" in="flood-1" in2="erode" result="comp1"/><feConvolveMatrix order="1,1" divisor="1" in="comp1" result="convolve" kernelMatrix="1"/><feOffset dx="-1" dy="0" in="convolve" result="extrude"/><feComposite operator="in" in="flood-1" in2="extrude" result="comp-extrude"/><feFlood flood-color="rgba(28.952380952380953%,28.3951841868823%,28.3951841868823%,0)" result="flood-2"/><feComposite operator="in" in="flood-2" in2="SourceAlpha" result="comp2"/><feMorphology operator="dilate" radius="1" in="comp2" result="dilate"/><feOffset dx="-1.5" dy="0" in="dilate" result="offset"/><feGaussianBlur in="offset" stdDeviation="5.8" result="blur"/><feComponentTransfer in="blur" result="shadow"><feFuncA type="linear" slope="0.8" intercept="-0.2"/></feComponentTransfer><feMerge><feMergeNode in="shadow"/><feMergeNode in="comp-extrude"/><feMergeNode in="SourceGraphic"/></feMerge></filter></defs><style>text {
  font-size: 64px;
  font-family: Arial Black;
  dominant-baseline: central;
  text-anchor: middle;
}</style><g class="currentLayer" style=""><title>Layer 1</title><g filter="url(#editing-extrude-glow)" class="" id="svg_4"><g id="svg_5"><path d="M19.073282143287358,92.51307806015006 L16.933282143287357,91.34307806015006 L16.933282143287357,69.26307806015006 L16.933282143287357,69.26307806015006 Q16.833282143287363,57.16307806015007 17.71328214328736,23.073078060150067 L17.71328214328736,23.073078060150067 L17.71328214328736,19.073078060150067 L17.71328214328736,19.073078060150067 Q17.71328214328736,18.00307806015006 18.10328214328736,17.803078060150057 L18.10328214328736,17.803078060150057 L51.69328214328736,17.803078060150057 L51.69328214328736,17.803078060150057 Q52.18328214328736,17.803078060150057 53.673282143287366,21.513078060150065 L53.673282143287366,21.513078060150065 L53.673282143287366,21.513078060150065 Q55.16328214328736,25.22307806015006 57.28328214328735,31.063078060150062 L57.28328214328735,31.063078060150062 L57.28328214328735,31.063078060150062 Q59.41328214328736,36.89307806015006 60.29328214328737,39.09307806015006 L60.29328214328737,39.09307806015006 L67.12328214328735,56.96307806015005 L67.12328214328735,38.01307806015006 L67.12328214328735,38.01307806015006 Q67.12328214328735,35.57307806015006 67.24328214328736,29.063078060150062 L67.24328214328736,29.063078060150062 L67.24328214328736,29.063078060150062 Q67.37328214328735,22.543078060150066 67.32328214328736,18.873078060150064 L67.32328214328736,18.873078060150064 L67.32328214328736,18.873078060150064 Q67.32328214328736,17.513078060150065 75.13328214328736,17.513078060150065 L75.13328214328736,17.513078060150065 L75.13328214328736,17.513078060150065 Q77.57328214328736,17.513078060150065 81.82328214328736,17.603078060150054 L81.82328214328736,17.603078060150054 L81.82328214328736,17.603078060150054 Q86.07328214328736,17.703078060150062 87.04328214328736,17.703078060150062 L87.04328214328736,17.703078060150062 L90.75328214328736,17.703078060150062 L90.75328214328736,17.703078060150062 Q91.54328214328736,17.703078060150062 91.54328214328736,18.00307806015006 L91.54328214328736,18.00307806015006 L91.54328214328736,18.00307806015006 Q91.83328214328736,31.57307806015006 91.83328214328736,56.86307806015006 L91.83328214328736,56.86307806015006 L91.83328214328736,90.75307806015006 L91.83328214328736,90.75307806015006 Q91.49328214328736,92.02307806015006 88.70328214328737,92.02307806015006 L88.70328214328737,92.02307806015006 L87.43328214328736,92.02307806015006 L87.43328214328736,92.02307806015006 Q84.90328214328736,92.02307806015006 79.96328214328736,92.12307806015006 L79.96328214328736,92.12307806015006 L79.96328214328736,92.12307806015006 Q75.03328214328735,92.21307806015005 72.49328214328736,92.21307806015005 L72.49328214328736,92.21307806015005 L58.143282143287365,92.21307806015005 L58.143282143287365,92.21307806015005 Q57.45328214328737,91.97307806015006 55.31328214328735,86.06307806015006 L55.31328214328735,86.06307806015006 L55.31328214328735,86.06307806015006 Q53.01328214328737,79.67307806015006 48.47328214328736,67.56307806015006 L48.47328214328736,67.56307806015006 L48.47328214328736,67.56307806015006 Q43.93328214328736,55.45307806015006 43.393282143287365,54.03307806015006 L43.393282143287365,54.03307806015006 L43.393282143287365,54.03307806015006 Q43.393282143287365,56.91307806015007 43.34328214328736,62.623078060150064 L43.34328214328736,62.623078060150064 L43.34328214328736,62.623078060150064 Q43.29328214328736,68.34307806015006 43.29328214328736,71.22307806015006 L43.29328214328736,71.22307806015006 L43.29328214328736,71.22307806015006 Q43.29328214328736,73.37307806015006 43.393282143287365,77.66307806015006 L43.393282143287365,77.66307806015006 L43.393282143287365,77.66307806015006 Q43.49328214328736,81.96307806015005 43.49328214328736,84.11307806015006 L43.49328214328736,84.11307806015006 L43.49328214328736,90.26307806015006 L43.49328214328736,90.26307806015006 Q43.49328214328736,92.51307806015006 41.54328214328736,92.51307806015006 L41.54328214328736,92.51307806015006 L19.073282143287358,92.51307806015006 zM91.54328214328736,18.093078060150063 L91.54328214328736,17.903078060150065 L91.54328214328736,18.093078060150063 zM132.84328214328735,92.41307806015006 L101.30328214328736,92.41307806015006 L101.30328214328736,92.41307806015006 Q101.50328214328736,78.20307806015006 101.98328214328735,71.61307806015006 L101.98328214328735,71.61307806015006 L101.98328214328735,71.61307806015006 Q101.98328214328735,51.10307806015007 102.57328214328736,30.013078060150058 L102.57328214328736,30.013078060150058 L102.57328214328736,30.013078060150058 Q102.38328214328736,25.913078060150056 102.38328214328736,23.953078060150062 L102.38328214328736,23.953078060150062 L102.38328214328736,22.493078060150054 L102.38328214328736,22.493078060150054 Q102.18328214328736,20.343078060150063 102.18328214328736,18.97307806015006 L102.18328214328736,18.97307806015006 L102.18328214328736,18.97307806015006 Q102.18328214328736,18.043078060150066 103.06328214328737,17.313078060150062 L103.06328214328737,17.313078060150062 L103.06328214328737,17.313078060150062 Q111.07328214328736,17.903078060150065 127.47328214328735,17.903078060150065 L127.47328214328735,17.903078060150065 L127.47328214328735,17.903078060150065 Q131.38328214328737,17.903078060150065 132.84328214328735,17.703078060150062 L132.84328214328735,17.703078060150062 L132.84328214328735,92.41307806015006 zM144.47328214328735,92.51307806015006 L142.32328214328737,91.34307806015006 L142.32328214328737,69.26307806015006 L142.32328214328737,69.26307806015006 Q142.22328214328735,57.16307806015007 143.10328214328737,23.073078060150067 L143.10328214328737,23.073078060150067 L143.10328214328737,19.073078060150067 L143.10328214328737,19.073078060150067 Q143.10328214328737,18.00307806015006 143.49328214328736,17.803078060150057 L143.49328214328736,17.803078060150057 L177.08328214328736,17.803078060150057 L177.08328214328736,17.803078060150057 Q177.57328214328737,17.803078060150057 179.06328214328735,21.513078060150065 L179.06328214328735,21.513078060150065 L179.06328214328735,21.513078060150065 Q180.55328214328736,25.22307806015006 182.67328214328737,31.063078060150062 L182.67328214328737,31.063078060150062 L182.67328214328737,31.063078060150062 Q184.80328214328736,36.89307806015006 185.68328214328736,39.09307806015006 L185.68328214328736,39.09307806015006 L192.51328214328737,56.96307806015005 L192.51328214328737,38.01307806015006 L192.51328214328737,38.01307806015006 Q192.51328214328737,35.57307806015006 192.63328214328737,29.063078060150062 L192.63328214328737,29.063078060150062 L192.63328214328737,29.063078060150062 Q192.76328214328737,22.543078060150066 192.71328214328736,18.873078060150064 L192.71328214328736,18.873078060150064 L192.71328214328736,18.873078060150064 Q192.71328214328736,17.513078060150065 200.52328214328736,17.513078060150065 L200.52328214328736,17.513078060150065 L200.52328214328736,17.513078060150065 Q202.96328214328736,17.513078060150065 207.21328214328736,17.603078060150054 L207.21328214328736,17.603078060150054 L207.21328214328736,17.603078060150054 Q211.46328214328736,17.703078060150062 212.43328214328736,17.703078060150062 L212.43328214328736,17.703078060150062 L216.15328214328736,17.703078060150062 L216.15328214328736,17.703078060150062 Q216.93328214328736,17.703078060150062 216.93328214328736,18.00307806015006 L216.93328214328736,18.00307806015006 L216.93328214328736,18.00307806015006 Q217.22328214328735,31.57307806015006 217.22328214328735,56.86307806015006 L217.22328214328735,56.86307806015006 L217.22328214328735,90.75307806015006 L217.22328214328735,90.75307806015006 Q216.88328214328737,92.02307806015006 214.09328214328735,92.02307806015006 L214.09328214328735,92.02307806015006 L212.82328214328737,92.02307806015006 L212.82328214328737,92.02307806015006 Q210.29328214328737,92.02307806015006 205.35328214328737,92.12307806015006 L205.35328214328737,92.12307806015006 L205.35328214328737,92.12307806015006 Q200.42328214328737,92.21307806015005 197.88328214328737,92.21307806015005 L197.88328214328737,92.21307806015005 L183.53328214328735,92.21307806015005 L183.53328214328735,92.21307806015005 Q182.84328214328735,91.97307806015006 180.70328214328737,86.06307806015006 L180.70328214328737,86.06307806015006 L180.70328214328737,86.06307806015006 Q178.40328214328736,79.67307806015006 173.86328214328736,67.56307806015006 L173.86328214328736,67.56307806015006 L173.86328214328736,67.56307806015006 Q169.32328214328737,55.45307806015006 168.78328214328735,54.03307806015006 L168.78328214328735,54.03307806015006 L168.78328214328735,54.03307806015006 Q168.78328214328735,56.91307806015007 168.73328214328737,62.623078060150064 L168.73328214328737,62.623078060150064 L168.73328214328737,62.623078060150064 Q168.68328214328736,68.34307806015006 168.68328214328736,71.22307806015006 L168.68328214328736,71.22307806015006 L168.68328214328736,71.22307806015006 Q168.68328214328736,73.37307806015006 168.78328214328735,77.66307806015006 L168.78328214328735,77.66307806015006 L168.78328214328735,77.66307806015006 Q168.88328214328737,81.96307806015005 168.88328214328737,84.11307806015006 L168.88328214328737,84.11307806015006 L168.88328214328737,90.26307806015006 L168.88328214328737,90.26307806015006 Q168.88328214328737,92.51307806015006 166.93328214328736,92.51307806015006 L166.93328214328736,92.51307806015006 L144.47328214328735,92.51307806015006 zM216.93328214328736,18.093078060150063 L216.93328214328736,17.903078060150065 L216.93328214328736,18.093078060150063 zM253.16328214328735,93.87307806015006 L253.16328214328735,93.87307806015006 L253.16328214328735,93.87307806015006 Q247.7432821432874,93.87307806015006 243.27328214328736,93.17307806015006 L243.27328214328736,93.17307806015006 L243.27328214328736,93.17307806015006 Q238.80328214328736,92.46307806015005 234.68328214328736,90.68307806015007 L234.68328214328736,90.68307806015007 L234.68328214328736,90.68307806015007 Q230.55328214328736,88.89307806015006 227.72328214328735,86.06307806015006 L227.72328214328735,86.06307806015006 L227.72328214328735,86.06307806015006 Q224.89328214328737,83.23307806015006 223.20328214328737,78.69307806015006 L223.20328214328737,78.69307806015006 L223.20328214328737,78.69307806015006 Q221.52328214328736,74.15307806015007 221.52328214328736,68.19307806015006 L221.52328214328736,68.19307806015006 L221.52328214328736,68.19307806015006 Q221.52328214328736,65.55307806015006 223.08328214328736,65.55307806015006 L223.08328214328736,65.55307806015006 L245.34328214328735,65.55307806015006 L245.34328214328735,65.55307806015006 Q246.8632821432874,65.55307806015006 247.59328214328735,66.29307806015007 L247.59328214328735,66.29307806015007 L247.59328214328735,66.29307806015007 Q248.32328214328737,67.02307806015006 248.47328214328735,68.09307806015006 L248.47328214328735,68.09307806015006 L248.47328214328735,68.09307806015006 Q248.62328214328738,69.17307806015006 248.7432821432874,70.24307806015005 L248.7432821432874,70.24307806015005 L248.7432821432874,70.24307806015005 Q248.8632821432874,71.32307806015007 249.47328214328735,72.05307806015006 L249.47328214328735,72.05307806015006 L249.47328214328735,72.05307806015006 Q250.08328214328736,72.78307806015006 251.40328214328736,72.78307806015006 L251.40328214328736,72.78307806015006 L251.40328214328736,72.78307806015006 Q252.62328214328738,72.78307806015006 253.38328214328737,72.12307806015006 L253.38328214328737,72.12307806015006 L253.38328214328737,72.12307806015006 Q254.13328214328737,71.46307806015005 254.45328214328737,70.14307806015006 L254.45328214328737,70.14307806015006 L254.45328214328737,70.14307806015006 Q254.77328214328736,68.83307806015006 254.84328214328735,67.85307806015007 L254.84328214328735,67.85307806015007 L254.84328214328735,67.85307806015007 Q254.91328214328735,66.87307806015006 254.91328214328735,65.36307806015006 L254.91328214328735,65.36307806015006 L254.91328214328735,64.97307806015006 L254.91328214328735,64.97307806015006 Q254.87328214328738,61.45307806015006 254.65328214328736,51.39307806015006 L254.65328214328736,51.39307806015006 L254.65328214328736,51.39307806015006 Q254.43328214328733,41.34307806015006 254.43328214328733,35.67307806015006 L254.43328214328733,35.67307806015006 L254.43328214328733,19.073078060150067 L254.43328214328733,19.073078060150067 Q254.43328214328733,17.653078060150065 256.4832821432874,17.413078060150056 L256.4832821432874,17.413078060150056 L256.4832821432874,17.413078060150056 Q258.04328214328734,17.413078060150056 261.16328214328735,17.463078060150053 L261.16328214328735,17.463078060150053 L261.16328214328735,17.463078060150053 Q264.29328214328734,17.513078060150065 265.8532821432874,17.513078060150065 L265.8532821432874,17.513078060150065 L265.8532821432874,17.513078060150065 Q268.20328214328737,17.513078060150065 272.79328214328734,17.463078060150053 L272.79328214328734,17.463078060150053 L272.79328214328734,17.463078060150053 Q277.3832821432874,17.413078060150056 279.72328214328735,17.413078060150056 L279.72328214328735,17.413078060150056 L284.3132821432874,17.413078060150056 L284.3132821432874,17.413078060150056 Q285.4332821432874,17.413078060150056 285.8732821432874,18.78307806015006 L285.8732821432874,18.78307806015006 L285.8732821432874,18.78307806015006 Q285.77328214328736,19.663078060150056 285.80328214328733,21.17307806015006 L285.80328214328733,21.17307806015006 L285.80328214328733,21.17307806015006 Q285.8232821432874,22.683078060150066 285.77328214328736,23.563078060150062 L285.77328214328736,23.563078060150062 L285.77328214328736,26.00307806015006 L285.77328214328736,26.00307806015006 Q285.29328214328734,40.99307806015006 285.29328214328734,52.763078060150065 L285.29328214328734,52.763078060150065 L285.29328214328734,68.09307806015006 L285.29328214328734,68.09307806015006 Q285.29328214328734,72.39307806015006 284.11328214328734,76.05307806015006 L284.11328214328734,76.05307806015006 L284.11328214328734,76.05307806015006 Q282.9432821432874,79.71307806015005 280.9932821432874,82.30307806015006 L280.9932821432874,82.30307806015006 L280.9932821432874,82.30307806015006 Q279.04328214328734,84.89307806015006 276.33328214328736,86.97307806015006 L276.33328214328736,86.97307806015006 L276.33328214328736,86.97307806015006 Q273.6232821432874,89.04307806015007 270.73328214328734,90.31307806015006 L270.73328214328734,90.31307806015006 L270.73328214328734,90.31307806015006 Q267.8532821432874,91.58307806015006 264.66328214328735,92.41307806015006 L264.66328214328735,92.41307806015006 L264.66328214328735,92.41307806015006 Q261.46328214328736,93.24307806015005 258.65328214328736,93.56307806015006 L258.65328214328736,93.56307806015006 L258.65328214328736,93.56307806015006 Q255.84328214328735,93.87307806015006 253.16328214328735,93.87307806015006 zM287.8232821432874,91.14307806015006 L287.8232821432874,91.14307806015006 L287.8232821432874,91.14307806015006 Q290.85328214328734,79.96307806015005 294.51328214328737,68.43307806015005 L294.51328214328737,68.43307806015005 L294.51328214328737,68.43307806015005 Q298.1832821432874,56.91307806015007 303.6232821432874,40.87307806015006 L303.6232821432874,40.87307806015006 L303.6232821432874,40.87307806015006 Q309.0632821432874,24.833078060150058 311.0732821432874,18.683078060150066 L311.0732821432874,18.683078060150066 L311.0732821432874,18.683078060150066 Q311.65328214328736,17.703078060150062 311.85328214328734,17.513078060150065 L311.85328214328734,17.513078060150065 L320.05328214328733,17.513078060150065 L320.05328214328733,17.513078060150065 Q322.9332821432874,17.513078060150065 328.55328214328733,17.413078060150056 L328.55328214328733,17.413078060150056 L328.55328214328733,17.413078060150056 Q334.16328214328735,17.313078060150062 337.04328214328734,17.313078060150062 L337.04328214328734,17.313078060150062 L345.2532821432874,17.313078060150062 L345.2532821432874,17.313078060150062 Q345.98328214328734,17.313078060150062 346.47328214328735,17.343078060150063 L346.47328214328735,17.343078060150063 L346.47328214328735,17.343078060150063 Q346.96328214328736,17.36307806015006 347.64328214328737,17.463078060150053 L347.64328214328737,17.463078060150053 L347.64328214328737,17.463078060150053 Q348.3232821432874,17.563078060150062 348.7432821432874,17.75307806015006 L348.7432821432874,17.75307806015006 L348.7432821432874,17.75307806015006 Q349.15328214328736,17.953078060150062 349.45328214328737,18.343078060150063 L349.45328214328737,18.343078060150063 L349.45328214328737,18.343078060150063 Q349.7432821432874,18.733078060150063 349.7432821432874,19.263078060150065 L349.7432821432874,19.263078060150065 L372.2532821432874,90.60307806015005 L372.2532821432874,90.60307806015005 Q372.2532821432874,91.58307806015006 371.54328214328734,91.95307806015006 L371.54328214328734,91.95307806015006 L371.54328214328734,91.95307806015006 Q370.83328214328736,92.31307806015006 368.8832821432874,92.31307806015006 L368.8832821432874,92.31307806015006 L364.39328214328737,92.31307806015006 L364.39328214328737,92.31307806015006 Q362.4332821432874,92.31307806015006 358.58328214328736,92.36307806015006 L358.58328214328736,92.36307806015006 L358.58328214328736,92.36307806015006 Q354.72328214328735,92.41307806015006 352.77328214328736,92.41307806015006 L352.77328214328736,92.41307806015006 L352.77328214328736,92.41307806015006 Q352.1832821432874,92.41307806015006 350.40328214328736,92.48307806015006 L350.40328214328736,92.48307806015006 L350.40328214328736,92.48307806015006 Q348.6232821432874,92.56307806015006 347.40328214328736,92.53307806015006 L347.40328214328736,92.53307806015006 L347.40328214328736,92.53307806015006 Q346.17328214328734,92.51307806015006 344.6932821432874,92.39307806015006 L344.6932821432874,92.39307806015006 L344.6932821432874,92.39307806015006 Q343.20328214328737,92.26307806015006 342.29328214328734,91.85307806015005 L342.29328214328734,91.85307806015005 L342.29328214328734,91.85307806015005 Q341.39328214328737,91.43307806015007 341.15328214328736,90.75307806015006 L341.15328214328736,90.75307806015006 L341.15328214328736,87.53307806015006 L341.15328214328736,87.53307806015006 Q340.66328214328735,85.09307806015006 339.4432821432874,83.03307806015006 L339.4432821432874,83.03307806015006 L339.4432821432874,83.03307806015006 Q338.22328214328735,80.98307806015006 336.85328214328734,80.98307806015006 L336.85328214328734,80.98307806015006 L320.05328214328733,80.98307806015006 L317.51328214328737,91.34307806015006 L317.51328214328737,91.34307806015006 Q316.98328214328734,92.51307806015006 312.04328214328734,92.51307806015006 L312.04328214328734,92.51307806015006 L308.14328214328737,92.51307806015006 L308.14328214328737,92.51307806015006 Q306.04328214328734,92.51307806015006 301.89328214328737,92.65307806015007 L301.89328214328737,92.65307806015007 L301.89328214328737,92.65307806015007 Q297.7432821432874,92.80307806015006 295.64328214328737,92.80307806015006 L295.64328214328737,92.80307806015006 L294.27328214328736,92.80307806015006 L294.27328214328736,92.80307806015006 Q293.4932821432874,92.80307806015006 291.80328214328733,92.85307806015005 L291.80328214328733,92.85307806015005 L291.80328214328733,92.85307806015005 Q290.1232821432874,92.90307806015007 289.1932821432874,92.90307806015007 L289.1932821432874,92.90307806015007 L289.1932821432874,92.90307806015007 Q288.80328214328733,92.51307806015006 287.8232821432874,91.14307806015006 zM325.6232821432874,44.56307806015006 L321.71328214328736,61.50307806015006 L323.08328214328736,63.80307806015006 L326.30328214328733,63.80307806015006 L326.30328214328733,63.80307806015006 Q330.21328214328736,63.80307806015006 333.45328214328737,63.33307806015006 L333.45328214328737,63.33307806015006 L333.45328214328737,63.33307806015006 Q336.70328214328737,62.873078060150064 336.70328214328737,61.84307806015006 L336.70328214328737,61.84307806015006 L330.40328214328736,33.72307806015006 L330.40328214328736,33.72307806015006 Q329.52328214328736,33.72307806015006 328.03328214328735,37.04307806015006 L328.03328214328735,37.04307806015006 L328.03328214328735,37.04307806015006 Q326.55328214328733,40.36307806015006 325.6232821432874,44.56307806015006 L325.6232821432874,44.56307806015006 zM375.1332821432874,25.913078060150056 L375.1332821432874,25.913078060150056 L375.1332821432874,25.913078060150056 Q375.1332821432874,17.953078060150062 376.79328214328734,17.023078060150056 L376.79328214328734,17.023078060150056 L376.79328214328734,17.023078060150056 Q377.28328214328735,17.123078060150064 378.16328214328735,17.123078060150064 L378.16328214328735,17.123078060150064 L379.72328214328735,17.123078060150064 L379.72328214328735,17.123078060150064 Q381.23328214328734,17.123078060150064 384.70328214328737,17.023078060150056 L384.70328214328737,17.023078060150056 L384.70328214328737,17.023078060150056 Q388.17328214328734,16.92307806015006 389.97328214328735,16.92307806015006 L389.97328214328735,16.92307806015006 L389.97328214328735,16.92307806015006 Q396.91328214328735,16.92307806015006 401.1832821432874,17.483078060150063 L401.1832821432874,17.483078060150063 L401.1832821432874,17.483078060150063 Q405.45328214328737,18.043078060150066 405.9932821432874,19.563078060150062 L405.9932821432874,19.563078060150062 L405.40328214328736,69.95307806015006 L406.48328214328734,69.95307806015006 L406.48328214328734,69.95307806015006 Q410.3832821432874,69.75307806015006 411.95328214328737,69.78307806015006 L411.95328214328737,69.78307806015006 L411.95328214328737,69.78307806015006 Q413.51328214328737,69.80307806015006 417.6832821432874,69.97307806015006 L417.6832821432874,69.97307806015006 L417.6832821432874,69.97307806015006 Q421.86328214328734,70.14307806015006 425.72328214328735,70.14307806015006 L425.72328214328735,70.14307806015006 L425.72328214328735,70.14307806015006 Q428.89328214328737,70.14307806015006 430.4332821432874,70.51307806015006 L430.4332821432874,70.51307806015006 L430.4332821432874,70.51307806015006 Q431.97328214328735,70.88307806015005 431.97328214328735,72.00307806015006 L431.97328214328735,72.00307806015006 L431.97328214328735,90.75307806015006 L431.97328214328735,90.75307806015006 Q431.33328214328736,92.51307806015006 410.1932821432874,92.51307806015006 L410.1932821432874,92.51307806015006 L376.40328214328736,92.51307806015006 L376.40328214328736,92.51307806015006 Q375.23328214328734,90.80307806015006 375.23328214328734,87.04307806015007 L375.23328214328734,87.04307806015007 L375.23328214328734,73.17307806015006 L375.23328214328734,73.17307806015006 Q375.23328214328734,67.07307806015007 375.3232821432874,55.10307806015007 L375.3232821432874,55.10307806015007 L375.3232821432874,55.10307806015007 Q375.42328214328734,43.14307806015006 375.42328214328734,37.04307806015006 L375.42328214328734,37.04307806015006 L375.42328214328734,37.04307806015006 Q375.42328214328734,35.92307806015006 375.28328214328735,32.06307806015006 L375.28328214328735,32.06307806015006 L375.28328214328735,32.06307806015006 Q375.1332821432874,28.203078060150062 375.1332821432874,25.913078060150056 zM473.86328214328734,79.03307806015006 L458.8232821432874,79.03307806015006 L458.8232821432874,79.03307806015006 Q458.48328214328734,80.15307806015007 458.16328214328735,81.98307806015006 L458.16328214328735,81.98307806015006 L458.16328214328735,81.98307806015006 Q457.84328214328735,83.82307806015007 457.58328214328736,84.87307806015006 L457.58328214328736,84.87307806015006 L457.58328214328736,84.87307806015006 Q457.3132821432874,85.92307806015006 456.67328214328734,87.06307806015006 L456.67328214328734,87.06307806015006 L456.67328214328734,87.06307806015006 Q456.04328214328734,88.21307806015005 454.7432821432874,88.75307806015006 L454.7432821432874,88.75307806015006 L454.7432821432874,88.75307806015006 Q453.45328214328737,89.28307806015006 451.40328214328736,89.28307806015006 L451.40328214328736,89.28307806015006 L430.3132821432874,89.28307806015006 L430.3132821432874,87.62307806015006 L430.3132821432874,87.62307806015006 Q432.89328214328737,79.86307806015006 437.85328214328734,63.80307806015006 L437.85328214328734,63.80307806015006 L437.85328214328734,63.80307806015006 Q442.8132821432874,47.73307806015006 445.54328214328734,39.48307806015006 L445.54328214328734,39.48307806015006 L445.54328214328734,39.58307806015006 L445.54328214328734,39.58307806015006 Q447.20328214328737,34.84307806015006 450.42328214328734,24.733078060150063 L450.42328214328734,24.733078060150063 L450.42328214328734,24.733078060150063 Q450.47328214328735,24.64307806015006 450.5732821432874,24.493078060150054 L450.5732821432874,24.493078060150054 L450.5732821432874,24.493078060150054 Q451.01328214328737,23.763078060150065 451.40328214328736,23.373078060150064 L451.40328214328736,23.373078060150064 L477.77328214328736,23.563078060150062 L477.77328214328736,23.563078060150062 Q484.5032821432874,23.563078060150062 485.1932821432874,24.733078060150063 L485.1932821432874,24.733078060150063 L485.1932821432874,26.00307806015006 L485.1932821432874,26.00307806015006 Q485.29328214328734,26.443078060150057 486.26328214328737,28.25307806015006 L486.26328214328737,28.25307806015006 L486.26328214328737,28.25307806015006 Q491.0032821432874,42.75307806015006 493.20328214328737,49.34307806015006 L493.20328214328737,49.34307806015006 L493.20328214328737,49.93307806015005 L493.20328214328737,49.93307806015005 Q493.39328214328737,51.35307806015007 494.0732821432874,53.15307806015005 L494.0732821432874,53.15307806015005 L494.0732821432874,53.15307806015005 Q494.76328214328737,54.96307806015005 495.71328214328736,57.03307806015006 L495.71328214328736,57.03307806015006 L495.71328214328736,57.03307806015006 Q496.66328214328735,59.11307806015006 497.05328214328733,60.28307806015006 L497.05328214328733,60.28307806015006 L499.01328214328737,67.31307806015006 L499.01328214328737,67.31307806015006 Q500.7232821432874,72.98307806015006 504.04328214328734,82.45307806015006 L504.04328214328734,82.45307806015006 L504.04328214328734,82.35307806015007 L504.04328214328734,83.33307806015006 L504.04328214328734,83.33307806015006 Q504.18328214328744,84.01307806015006 504.77328214328736,85.18307806015007 L504.77328214328736,85.18307806015007 L504.77328214328736,85.18307806015007 Q505.3532821432873,86.35307806015005 505.5032821432874,86.84307806015006 L505.5032821432874,86.84307806015006 L505.5032821432874,86.84307806015006 Q505.5032821432874,88.21307806015005 504.94328214328743,88.60307806015005 L504.94328214328743,88.60307806015005 L504.94328214328743,88.60307806015005 Q504.3832821432874,88.99307806015005 502.77328214328736,88.99307806015005 L502.77328214328736,88.99307806015005 L480.11328214328734,88.99307806015005 L480.11328214328734,88.99307806015005 Q479.28328214328735,88.89307806015006 479.04328214328734,88.85307806015005 L479.04328214328734,88.85307806015005 L479.04328214328734,88.85307806015005 Q478.79328214328734,88.80307806015006 478.28328214328735,88.65307806015007 L478.28328214328735,88.65307806015007 L478.28328214328735,88.65307806015007 Q477.77328214328736,88.50307806015006 477.55328214328733,88.26307806015006 L477.55328214328733,88.26307806015006 L477.55328214328733,88.26307806015006 Q477.33328214328736,88.01307806015006 477.28328214328735,87.62307806015006 L477.28328214328735,87.62307806015006 L475.42328214328734,80.20307806015006 L475.42328214328734,80.20307806015006 Q475.23328214328734,79.27307806015006 475.03328214328735,79.15307806015007 L475.03328214328735,79.15307806015007 L475.03328214328735,79.15307806015007 Q474.84328214328735,79.03307806015006 473.86328214328734,79.03307806015006 L473.86328214328734,79.03307806015006 zM461.16328214328735,61.84307806015006 L461.16328214328735,61.653078060150065 L461.16328214328735,61.84307806015006 zM471.91328214328735,55.793078060150066 L471.91328214328735,55.793078060150066 L471.91328214328735,55.793078060150066 Q471.61328214328734,54.42307806015006 471.05328214328733,51.37307806015005 L471.05328214328733,51.37307806015005 L471.05328214328733,51.37307806015005 Q470.4932821432874,48.32307806015007 469.95328214328737,46.05307806015006 L469.95328214328737,46.05307806015006 L469.95328214328737,46.05307806015006 Q469.42328214328734,43.78307806015006 468.78328214328735,41.82307806015007 L468.78328214328735,41.82307806015007 L468.78328214328735,39.48307806015006 L468.78328214328735,39.48307806015006 Q468.39328214328737,38.45307806015006 467.41328214328735,38.01307806015006 L467.41328214328735,38.01307806015006 L467.41328214328735,38.11307806015006 L467.41328214328735,38.11307806015006 Q466.2432821432874,38.36307806015006 465.0732821432874,44.66307806015007 L465.0732821432874,44.66307806015007 L465.0732821432874,47.00307806015006 L465.0732821432874,47.00307806015006 Q464.97328214328735,47.34307806015006 464.6332821432874,47.63307806015007 L464.6332821432874,47.63307806015007 L464.6332821432874,47.63307806015007 Q464.29328214328734,47.93307806015005 464.29328214328734,47.98307806015006 L464.29328214328734,47.98307806015006 L464.29328214328734,47.98307806015006 Q462.6832821432874,55.10307806015007 461.65328214328736,59.50307806015006 L461.65328214328736,59.50307806015006 L461.65328214328736,59.50307806015006 Q461.65328214328736,59.993078060150054 461.41328214328735,61.21307806015005 L461.41328214328735,61.21307806015005 L461.41328214328735,61.21307806015005 Q461.16328214328735,62.43307806015005 461.16328214328735,62.623078060150064 L461.16328214328735,62.623078060150064 L473.27328214328736,62.623078060150064 L473.27328214328736,62.623078060150064 Q473.27328214328736,61.35307806015007 472.40328214328736,58.03307806015006 L472.40328214328736,58.03307806015006 L472.40328214328736,56.96307806015005 L472.40328214328736,56.96307806015005 Q472.35328214328734,56.81307806015006 472.1332821432874,56.40307806015005 L472.1332821432874,56.40307806015005 L472.1332821432874,56.40307806015005 Q471.91328214328735,55.98307806015006 471.91328214328735,55.793078060150066 zM559.9932821432874,54.62307806015005 L559.9932821432874,54.62307806015005 L559.9932821432874,54.62307806015005 Q562.4832821432874,54.62307806015005 564.5832821432873,56.18307806015005 L564.5832821432873,56.18307806015005 L564.5832821432873,56.18307806015005 Q566.6832821432873,57.743078060150054 567.9532821432873,60.11307806015006 L567.9532821432873,60.11307806015006 L567.9532821432873,60.11307806015006 Q569.2232821432874,62.48307806015006 569.9332821432873,65.04307806015007 L569.9332821432873,65.04307806015007 L569.9332821432873,65.04307806015007 Q570.6432821432874,67.60307806015007 570.6432821432874,69.85307806015007 L570.6432821432874,69.85307806015007 L570.6432821432874,69.85307806015007 Q570.4432821432873,75.81307806015006 567.2432821432874,80.23307806015006 L567.2432821432874,80.23307806015006 L567.2432821432874,80.23307806015006 Q564.0532821432873,84.65307806015007 558.7232821432874,86.55307806015006 L558.7232821432874,86.55307806015006 L554.6232821432874,88.99307806015005 L508.53328214328735,88.99307806015005 L508.53328214328735,23.373078060150064 L545.6432821432874,23.373078060150064 L545.6432821432874,23.373078060150064 Q556.6732821432873,23.373078060150064 563.1232821432874,28.053078060150057 L563.1232821432874,28.053078060150057 L563.1232821432874,28.053078060150057 Q565.9532821432873,29.913078060150063 567.4132821432873,33.43307806015006 L567.4132821432873,33.43307806015006 L567.4132821432873,33.43307806015006 Q568.8832821432874,36.94307806015006 568.8832821432874,40.85307806015006 L568.8832821432874,40.85307806015006 L568.8832821432874,40.85307806015006 Q568.8832821432874,45.83307806015006 566.7132821432874,48.85307806015007 L566.7132821432874,48.85307806015007 L566.7132821432874,48.85307806015007 Q564.5332821432874,51.88307806015007 559.9932821432874,54.62307806015005 zM534.7032821432873,60.873078060150064 L534.7032821432873,60.873078060150064 L532.7532821432874,73.02307806015006 L532.7532821432874,73.02307806015006 Q532.7532821432874,73.22307806015006 533.4332821432873,73.49307806015005 L533.4332821432873,73.49307806015005 L533.4332821432873,73.49307806015005 Q534.1132821432874,73.76307806015006 534.6032821432874,73.85307806015007 L534.6032821432874,73.85307806015007 L538.4132821432873,73.85307806015007 L538.4132821432873,73.85307806015007 Q541.5832821432873,73.61307806015006 543.5132821432874,72.27307806015006 L543.5132821432874,72.27307806015006 L543.5132821432874,72.27307806015006 Q545.4432821432873,70.93307806015005 545.4432821432873,67.80307806015006 L545.4432821432873,67.80307806015006 L545.4432821432873,67.80307806015006 Q545.4432821432873,66.68307806015005 545.2032821432873,65.75307806015006 L545.2032821432873,65.75307806015006 L545.2032821432873,65.75307806015006 Q544.9532821432873,64.82307806015007 544.5932821432874,64.14307806015006 L544.5932821432874,64.14307806015006 L544.5932821432874,64.14307806015006 Q544.2232821432874,63.45307806015006 543.5932821432874,62.92307806015006 L543.5932821432874,62.92307806015006 L543.5932821432874,62.92307806015006 Q542.9532821432873,62.383078060150055 542.3932821432874,62.043078060150066 L542.3932821432874,62.043078060150066 L542.3932821432874,62.043078060150066 Q541.8332821432873,61.70307806015006 540.9032821432874,61.48307806015006 L540.9032821432874,61.48307806015006 L540.9032821432874,61.48307806015006 Q539.9732821432874,61.263078060150065 539.3632821432874,61.14307806015006 L539.3632821432874,61.14307806015006 L539.3632821432874,61.14307806015006 Q538.7532821432874,61.013078060150065 537.7532821432874,60.94307806015006 L537.7532821432874,60.94307806015006 L537.7532821432874,60.94307806015006 Q536.7532821432874,60.873078060150064 536.2132821432874,60.873078060150064 L536.2132821432874,60.873078060150064 L536.2132821432874,60.873078060150064 Q535.6832821432873,60.873078060150064 534.7032821432873,60.873078060150064 zM533.7232821432874,39.38307806015006 L533.7232821432874,39.38307806015006 L533.7232821432874,39.38307806015006 Q534.1132821432874,41.58307806015006 534.1132821432874,44.46307806015005 L534.1132821432874,44.46307806015005 L534.1132821432874,45.44307806015006 L534.1132821432874,45.44307806015006 Q534.1132821432874,45.58307806015006 534.0632821432873,45.93307806015005 L534.0632821432873,45.93307806015005 L534.0632821432873,45.93307806015005 Q534.0232821432874,46.273078060150056 534.0232821432874,46.41307806015007 L534.0232821432874,46.41307806015007 L534.0232821432874,46.41307806015007 Q534.0232821432874,46.61307806015006 534.0632821432873,47.273078060150056 L534.0632821432873,47.273078060150056 L534.0632821432873,47.273078060150056 Q534.1132821432874,47.93307806015005 534.1132821432874,48.37307806015005 L534.1132821432874,48.37307806015005 L534.1132821432874,49.93307806015005 L534.1132821432874,49.93307806015005 Q534.1132821432874,50.47307806015006 534.5032821432874,50.61307806015006 L534.5032821432874,50.61307806015006 L534.5032821432874,50.61307806015006 Q535.7732821432874,50.61307806015006 536.5132821432874,50.56307806015006 L536.5132821432874,50.56307806015006 L536.5132821432874,50.56307806015006 Q537.2432821432874,50.513078060150065 538.6332821432874,50.37307806015005 L538.6332821432874,50.37307806015005 L538.6332821432874,50.37307806015005 Q540.0232821432874,50.22307806015006 540.9032821432874,49.78307806015006 L540.9032821432874,49.78307806015006 L540.9032821432874,49.78307806015006 Q541.7832821432874,49.34307806015006 542.7132821432874,48.64307806015006 L542.7132821432874,48.64307806015006 L542.7132821432874,48.64307806015006 Q543.6432821432874,47.93307806015005 544.1032821432874,46.71307806015005 L544.1032821432874,46.71307806015005 L544.1032821432874,46.71307806015005 Q544.5632821432873,45.493078060150054 544.5632821432873,43.87307806015005 L544.5632821432873,43.87307806015005 L544.5632821432873,43.87307806015005 Q544.5632821432873,41.68307806015006 543.1032821432874,40.31307806015006 L543.1032821432874,40.31307806015006 L543.1032821432874,40.31307806015006 Q541.6332821432874,38.94307806015006 539.7832821432874,38.53307806015006 L539.7832821432874,38.53307806015006 L539.7832821432874,38.53307806015006 Q537.9232821432873,38.11307806015006 535.5832821432873,38.11307806015006 L535.5832821432873,38.11307806015006 L535.5832821432873,38.11307806015006 Q535.3832821432874,38.21307806015006 534.5032821432874,38.21307806015006 L534.5032821432874,38.21307806015006 L534.5032821432874,38.11307806015006 L534.5032821432874,38.11307806015006 Q533.7232821432874,38.41307806015006 533.7232821432874,39.38307806015006 zM615.1732821432873,42.90307806015005 L615.1732821432873,42.90307806015005 L615.1732821432873,42.90307806015005 Q613.8532821432874,42.90307806015005 613.0232821432874,42.513078060150065 L613.0232821432874,42.513078060150065 L613.0232821432874,42.513078060150065 Q612.1932821432873,42.12307806015005 611.7032821432873,41.53307806015006 L611.7032821432873,41.53307806015006 L611.7032821432873,41.53307806015006 Q611.2132821432874,40.94307806015006 610.6032821432874,40.36307806015006 L610.6032821432874,40.36307806015006 L610.6032821432874,40.36307806015006 Q609.9932821432874,39.77307806015006 608.6732821432873,39.38307806015006 L608.6732821432873,39.38307806015006 L608.6732821432873,39.38307806015006 Q607.3632821432874,38.99307806015006 605.3132821432873,38.99307806015006 L605.3132821432873,38.99307806015006 L605.3132821432873,38.99307806015006 Q604.6732821432873,38.99307806015006 603.7732821432874,39.11307806015006 L603.7732821432874,39.11307806015006 L603.7732821432874,39.11307806015006 Q602.8632821432874,39.24307806015006 601.7932821432873,39.77307806015006 L601.7932821432873,39.77307806015006 L601.7932821432873,39.77307806015006 Q600.7232821432874,40.31307806015006 600.7232821432874,41.14307806015006 L600.7232821432874,41.14307806015006 L600.7232821432874,41.14307806015006 Q600.7232821432874,42.07307806015007 601.6232821432874,42.73307806015006 L601.6232821432874,42.73307806015006 L601.6232821432874,42.73307806015006 Q602.5232821432874,43.39307806015006 603.6732821432873,43.65307806015005 L603.6732821432873,43.65307806015005 L603.6732821432873,43.65307806015005 Q604.8232821432873,43.92307806015006 606.2632821432874,44.293078060150066 L606.2632821432874,44.293078060150066 L606.2632821432874,44.293078060150066 Q607.7032821432873,44.66307806015007 608.2832821432874,44.95307806015006 L608.2832821432874,44.95307806015006 L615.4632821432874,46.71307806015005 L615.4632821432874,46.71307806015005 Q618.6432821432874,47.59307806015006 621.1732821432873,48.56307806015006 L621.1732821432873,48.56307806015006 L621.1732821432873,48.56307806015006 Q623.7132821432874,49.543078060150066 626.5732821432873,51.22307806015006 L626.5732821432873,51.22307806015006 L626.5732821432873,51.22307806015006 Q629.4332821432873,52.91307806015007 631.3332821432873,54.96307806015005 L631.3332821432873,54.96307806015005 L631.3332821432873,54.96307806015005 Q633.2332821432874,57.013078060150065 634.5032821432874,60.11307806015006 L634.5032821432874,60.11307806015006 L634.5032821432874,60.11307806015006 Q635.7732821432874,63.21307806015005 635.7732821432874,66.92307806015006 L635.7732821432874,66.92307806015006 L635.7732821432874,66.92307806015006 Q635.7732821432874,71.41307806015006 634.6032821432874,74.93307806015005 L634.6032821432874,74.93307806015005 L634.6032821432874,74.83307806015006 L634.6032821432874,74.83307806015006 Q633.5832821432873,77.96307806015005 631.7232821432874,80.42307806015006 L631.7232821432874,80.42307806015006 L631.7232821432874,80.42307806015006 Q629.8732821432874,82.89307806015006 627.3332821432873,84.52307806015006 L627.3332821432873,84.52307806015006 L627.3332821432873,84.52307806015006 Q624.7932821432873,86.16307806015006 622.2032821432873,87.26307806015006 L622.2032821432873,87.26307806015006 L622.2032821432873,87.26307806015006 Q619.6132821432874,88.36307806015006 616.2232821432874,89.02307806015006 L616.2232821432874,89.02307806015006 L616.2232821432874,89.02307806015006 Q612.8232821432873,89.68307806015007 610.1632821432873,89.99307806015005 L610.1632821432873,89.99307806015005 L610.1632821432873,89.99307806015005 Q607.5032821432874,90.31307806015006 604.0432821432873,90.55307806015006 L604.0432821432873,90.55307806015006 L604.0432821432873,90.55307806015006 Q588.6532821432874,89.77307806015006 583.4332821432873,85.67307806015006 L583.4332821432873,85.67307806015006 L583.4332821432873,85.09307806015006 L583.4332821432873,85.09307806015006 Q578.9932821432874,81.76307806015006 576.8632821432874,77.86307806015006 L576.8632821432874,77.86307806015006 L576.8632821432874,77.86307806015006 Q574.7432821432874,73.95307806015006 574.3532821432874,69.07307806015007 L574.3532821432874,69.07307806015007 L574.3532821432874,69.07307806015007 Q574.3532821432874,67.90307806015007 575.4232821432873,67.90307806015007 L575.4232821432873,67.90307806015007 L575.4232821432873,67.90307806015007 Q575.7232821432874,67.90307806015007 576.3032821432873,67.95307806015006 L576.3032821432873,67.95307806015006 L576.3032821432873,67.95307806015006 Q576.8932821432874,68.00307806015006 577.1832821432873,68.00307806015006 L577.1832821432873,68.00307806015006 L582.1632821432873,68.00307806015006 L582.1632821432873,68.00307806015006 Q582.8432821432874,67.90307806015007 584.1132821432874,67.90307806015007 L584.1132821432874,67.90307806015007 L585.3832821432874,67.90307806015007 L585.3832821432874,67.90307806015007 Q585.7732821432874,67.90307806015007 586.0732821432873,68.00307806015006 L586.0732821432873,68.00307806015006 L586.0732821432873,68.00307806015006 Q588.9032821432874,67.90307806015007 595.7332821432874,67.90307806015007 L595.7332821432874,67.90307806015007 L597.9832821432874,67.90307806015007 L597.9832821432874,67.90307806015007 Q598.9632821432874,67.90307806015007 599.4932821432874,68.48307806015006 L599.4932821432874,68.48307806015006 L599.4932821432874,68.48307806015006 Q600.0332821432874,69.07307806015007 600.3532821432874,69.92307806015006 L600.3532821432874,69.92307806015006 L600.3532821432874,69.92307806015006 Q600.6732821432873,70.78307806015006 601.0832821432873,71.63307806015005 L601.0832821432873,71.63307806015005 L601.0832821432873,71.63307806015005 Q601.5032821432874,72.49307806015005 602.5732821432873,73.07307806015007 L602.5732821432873,73.07307806015007 L602.5732821432873,73.07307806015007 Q603.6532821432874,73.66307806015006 605.4032821432874,73.66307806015006 L605.4032821432874,73.66307806015006 L605.4032821432874,73.66307806015006 Q607.3132821432873,73.66307806015006 608.8532821432874,72.66307806015006 L608.8532821432874,72.66307806015006 L608.8532821432874,72.66307806015006 Q610.3832821432874,71.66307806015006 610.3832821432874,69.75307806015006 L610.3832821432874,69.75307806015006 L610.3832821432874,69.75307806015006 Q610.3832821432874,68.87307806015006 609.5532821432873,68.09307806015006 L609.5532821432873,68.09307806015006 L609.5532821432873,68.09307806015006 Q608.7232821432874,67.31307806015006 607.0632821432873,66.68307806015005 L607.0632821432873,66.68307806015005 L607.0632821432873,66.68307806015005 Q605.4032821432874,66.04307806015007 604.1132821432874,65.65307806015007 L604.1132821432874,65.65307806015007 L604.1132821432874,65.65307806015007 Q602.8132821432873,65.26307806015006 600.6232821432874,64.72307806015006 L600.6232821432874,64.72307806015006 L600.6232821432874,64.72307806015006 Q598.4232821432873,64.19307806015006 597.7932821432873,63.993078060150054 L597.7932821432873,63.993078060150054 L594.8632821432874,63.993078060150054 L594.8632821432874,63.993078060150054 Q584.2632821432874,60.873078060150064 579.6032821432874,56.06307806015006 L579.6032821432874,56.06307806015006 L579.6032821432874,56.06307806015006 Q574.9332821432873,51.25307806015006 574.9332821432873,43.87307806015005 L574.9332821432873,43.87307806015005 L574.9332821432873,43.87307806015005 Q574.9332821432873,38.99307806015006 576.7732821432874,35.09307806015006 L576.7732821432874,35.09307806015006 L576.7732821432874,35.09307806015006 Q578.6032821432874,31.18307806015006 581.6032821432874,28.693078060150057 L581.6032821432874,28.693078060150057 L581.6032821432874,28.693078060150057 Q584.6032821432874,26.203078060150062 588.6532821432874,24.513078060150065 L588.6532821432874,24.513078060150065 L588.6532821432874,24.513078060150065 Q592.7132821432874,22.833078060150058 596.9132821432873,22.123078060150064 L596.9132821432873,22.123078060150064 L596.9132821432873,22.123078060150064 Q601.1132821432874,21.413078060150056 605.6032821432874,21.413078060150056 L605.6032821432874,21.413078060150056 L605.6032821432874,21.413078060150056 Q613.5632821432873,21.413078060150056 620.3732821432874,24.073078060150067 L620.3732821432874,24.073078060150067 L620.3732821432874,24.073078060150067 Q627.1832821432873,26.743078060150054 630.7032821432873,30.983078060150063 L630.7032821432873,30.983078060150063 L630.7032821432873,30.983078060150063 Q631.9732821432874,32.25307806015006 632.7532821432874,34.21307806015006 L632.7532821432874,34.21307806015006 L632.7532821432874,34.21307806015006 Q633.5332821432874,36.16307806015006 633.7532821432874,37.31307806015006 L633.7532821432874,37.31307806015006 L633.7532821432874,37.31307806015006 Q633.9732821432874,38.45307806015006 634.3132821432873,41.14307806015006 L634.3132821432873,41.14307806015006 L632.9432821432873,43.09307806015006 L624.6432821432874,43.09307806015006 L624.6432821432874,43.09307806015006 Q623.2732821432874,43.09307806015006 620.1032821432874,43.00307806015006 L620.1032821432874,43.00307806015006 L620.1032821432874,43.00307806015006 Q616.9332821432873,42.90307806015005 615.1732821432873,42.90307806015005 z" fill="#66fcf1" id="svg_3"/></g></g></g></svg>