<svg width="530.531298828125px" height="169.98249511718748px" xmlns="http://www.w3.org/2000/svg" viewBox="-15.265649414062523 -9.991247558593741 530.531298828125 169.98249511718748" style="background: rgba(0, 0, 0, 0);" preserveAspectRatio="xMidYMid"><defs><filter id="editing-extrude-glow"><feFlood flood-color="rgba(0%,0%,0%,0)" result="flood-1"></feFlood><feMorphology operator="erode" radius="1" in="SourceAlpha" result="erode"></feMorphology><feComposite operator="in" in="flood-1" in2="erode" result="comp1"></feComposite><feConvolveMatrix order="1,1" divisor="1" in="comp1" result="convolve" kernelMatrix="1"></feConvolveMatrix><feOffset dx="-1" dy="0" in="convolve" result="extrude"></feOffset><feComposite operator="in" in="flood-1" in2="extrude" result="comp-extrude"></feComposite><feFlood flood-color="rgba(28.952380952380953%,28.3951841868823%,28.3951841868823%,0)" result="flood-2"></feFlood><feComposite operator="in" in="flood-2" in2="SourceAlpha" result="comp2"></feComposite><feMorphology operator="dilate" radius="1" in="comp2" result="dilate"></feMorphology><feOffset dx="-1.5" dy="0" in="dilate" result="offset"></feOffset><feGaussianBlur in="offset" stdDeviation="5.8" result="blur"></feGaussianBlur><feComponentTransfer in="blur" result="shadow"><feFuncA type="linear" slope="0.8" intercept="-0.2"></feFuncA></feComponentTransfer><feMerge><feMergeNode in="shadow"></feMergeNode><feMergeNode in="comp-extrude"></feMergeNode><feMergeNode in="SourceGraphic"></feMergeNode></feMerge></filter></defs><g filter="url(#editing-extrude-glow)"><g transform="translate(60.50156545639038, 107.36249923706055)"><path d="M49.70-62.10L49.70 0L33.30 0L20.40-28.90L19.60-28.90L19.60 0L4.40 0L4.40-62.10L21.30-62.10L33.60-32.30L34.40-32.30L34.40-62.10L49.70-62.10ZM76.50-62.10L76.50 0L59.50 0L59.50-62.10L76.50-62.10ZM131.60-62.10L131.60 0L115.20 0L102.30-28.90L101.50-28.90L101.50 0L86.30 0L86.30-62.10L103.20-62.10L115.50-32.30L116.30-32.30L116.30-62.10L131.60-62.10ZM143.60-62.10L160.40-62.10L160.40-12.50L160.40-12.50Q160.40-4.80 156.90-1.90L156.90-1.90L156.90-1.90Q153.40 1 144 1L144 1L138.90 1L137.60-12.60L141-12.60L141-12.60Q142.70-12.60 143.15-13.05L143.15-13.05L143.15-13.05Q143.60-13.50 143.60-15L143.60-15L143.60-62.10ZM202.40-62.10L213.80 0L197.10 0L195.20-9.80L183.40-9.80L181.50 0L165.60 0L177-62.10L202.40-62.10ZM185.60-21.50L193.30-21.50L189.80-43.70L189.10-43.70L185.60-21.50ZM251.60-13.90L250.60 0L219.00 0L219.00-62.10L236.10-62.10L236.10-13.90L251.60-13.90ZM289.90-35.40L289.90-35.40L289.40-14.70L289.40-14.70Q289.40-12.80 290.35-12.15L290.35-12.15L290.35-12.15Q291.30-11.50 293.60-11.50L293.60-11.50L292.10 0.60L292.10 0.60Q286.30 1 285.70 1L285.70 1L285.70 1Q278.30 1 276.30-4.10L276.30-4.10L275.80-4.10L275.80-4.10Q272.10 1 264.40 1L264.40 1L264.40 1Q258.50 1 255.35-2.80L255.35-2.80L255.35-2.80Q252.20-6.60 252.20-13.20L252.20-13.20L252.20-13.20Q252.20-21.50 257.35-24.70L257.35-24.70L257.35-24.70Q262.50-27.90 273.60-28.90L273.60-28.90L273.60-31.30L273.60-31.30Q273.60-34.10 270.80-34.10L270.80-34.10L270.80-34.10Q266-34.10 255.80-31.20L255.80-31.20L253.30-45.80L253.30-45.80Q266.10-49.10 274.60-49.10L274.60-49.10L274.60-49.10Q283.10-49.10 286.50-45.80L286.50-45.80L286.50-45.80Q289.90-42.50 289.90-35.40ZM270.60-10.70L270.60-10.70L270.60-10.70Q274.30-10.70 274.30-14.60L274.30-14.60L274.30-19.50L274.30-19.50Q270.60-19 269.05-17.95L269.05-17.95L269.05-17.95Q267.50-16.90 267.50-14.40L267.50-14.40L267.50-14.40Q267.50-10.70 270.60-10.70ZM323.00-49L323.00-49Q332.40-49 335.50-43.55L335.50-43.55L335.50-43.55Q338.60-38.10 338.60-24.85L338.60-24.85L338.60-24.85Q338.60-11.60 335.30-5.30L335.30-5.30L335.30-5.30Q332.00 1 322.40 1L322.40 1L322.40 1Q314.90 1 311.90-2.90L311.90-2.90L311.50-2.90L310.50 0L297.40 0L297.40-64.10L314.10-64.10L314.10-46.80L314.50-46.80L314.50-46.80Q317.80-49 323.00-49L323.00-49ZM321.25-15.05L321.25-15.05L321.25-15.05Q321.60-16.80 321.70-18.50L321.70-18.50L321.70-18.50Q321.80-20.20 321.80-24.95L321.80-24.95L321.80-24.95Q321.80-29.70 321.10-32.25L321.10-32.25L321.10-32.25Q320.40-34.80 318.25-34.80L318.25-34.80L318.25-34.80Q316.10-34.80 314.00-33.60L314.00-33.60L314.00-12.90L314.00-12.90Q315.90-12 317.65-12L317.65-12L317.65-12Q319.40-12 320.15-12.65L320.15-12.65L320.15-12.65Q320.90-13.30 321.25-15.05ZM341.40-33.75L341.40-33.75L341.40-33.75Q341.40-41 345.85-45.05L345.85-45.05L345.85-45.05Q350.30-49.10 358.10-49.10L358.10-49.10L358.10-49.10Q365.90-49.10 373.90-47.10L373.90-47.10L372.20-33.20L372.20-33.20Q362.00-35.50 358.50-35.50L358.50-35.50L358.50-35.50Q356.40-35.50 356.40-33.80L356.40-33.80L356.40-33.80Q356.40-32.70 358.70-31.80L358.70-31.80L358.70-31.80Q366.70-28.90 370.75-25.20L370.75-25.20L370.75-25.20Q374.80-21.50 374.80-14.10L374.80-14.10L374.80-14.10Q374.80-6.70 371.00-2.85L371.00-2.85L371.00-2.85Q367.20 1 359.35 1L359.35 1L359.35 1Q351.50 1 343.70-1L343.70-1L344.80-14.50L344.80-14.50Q354.80-11.80 357.75-11.80L357.75-11.80L357.75-11.80Q360.70-11.80 360.70-13.20L360.70-13.20L360.70-13.20Q360.70-14.60 358.50-15.40L358.50-15.40L358.50-15.40Q349.60-18.80 345.50-22.65L345.50-22.65L345.50-22.65Q341.40-26.50 341.40-33.75Z" fill="#66fcf1"></path></g></g><style>text {
  font-size: 64px;
  font-family: Arial Black;
  dominant-baseline: central;
  text-anchor: middle;
}</style></svg>